<svg width="256" height="256" viewBox="0 0 256 256" fill="none" xmlns="http://www.w3.org/2000/svg">
<circle cx="128" cy="128" r="128" fill="#D9D9D9"/>
<path d="M128.003 56.0472C103.597 56.0472 83.7241 75.9122 83.7241 100.326C83.7241 124.726 103.582 144.599 128.003 144.599C152.418 144.599 172.29 124.726 172.29 100.326C172.29 75.9122 152.418 56.0472 128.003 56.0472Z" fill="#707070"/>
<path d="M162.132 143.588C152.697 151.046 140.948 155.667 128.004 155.667C115.059 155.667 103.317 151.032 93.861 143.588C75.9587 154.986 63.4938 175.002 61.7817 198.184C68.0498 199.036 79.2039 199.953 95.1217 199.953H160.856C176.782 199.953 187.943 199.036 194.218 198.184C192.52 174.987 180.056 154.986 162.132 143.588Z" fill="#707070"/>
</svg>
