<svg width="256" height="256" viewBox="0 0 256 256" fill="none" xmlns="http://www.w3.org/2000/svg">
<g clip-path="url(#clip0_149_7)">
<circle cx="128" cy="128" r="128" fill="#D9D9D9"/>
<mask id="mask0_149_7" style="mask-type:luminance" maskUnits="userSpaceOnUse" x="0" y="0" width="256" height="256">
<path d="M256 0H0V256H256V0Z" fill="white"/>
</mask>
<g mask="url(#mask0_149_7)">
<path d="M150.821 248.865C152.277 250.448 153.776 251.86 155.305 253.08C146.506 254.993 137.371 256 128 256C118.629 256 109.492 254.993 100.693 253.08C102.209 251.87 103.696 250.472 105.14 248.905C112.508 250.28 120.108 251 127.875 251C135.717 251 143.387 250.265 150.821 248.865ZM128 0C198.693 0 256 57.3075 256 128C256 177.273 228.159 220.042 187.35 241.437C188.078 239.332 188.685 237.072 189.167 234.684C226.118 213.434 251 173.56 251 127.875C251 59.8751 195.875 4.74999 127.875 4.74999C59.8751 4.74999 4.74999 59.8751 4.74999 127.875C4.74999 173.677 29.759 213.636 66.8658 234.845C67.3422 237.174 67.9386 239.379 68.6502 241.437C27.8412 220.042 0 177.273 0 128C0 57.3075 57.3075 0 128 0Z" fill="#52616B"/>
<path d="M98.5268 196.73H91.9211C91.045 196.73 90.2049 197.078 89.5853 197.697C88.9662 198.317 88.6182 199.158 88.6182 200.034C88.6182 200.91 88.9662 201.75 89.5853 202.369C90.2049 202.989 91.045 203.337 91.9211 203.337H98.5268V209.944C98.5268 210.82 98.8748 211.661 99.4944 212.28C100.114 212.9 100.954 213.248 101.83 213.248C102.706 213.248 103.546 212.9 104.165 212.28C104.785 211.661 105.133 210.82 105.133 209.944V203.337H111.738C112.614 203.337 113.455 202.989 114.074 202.369C114.694 201.75 115.042 200.91 115.042 200.034C115.042 199.158 114.694 198.317 114.074 197.697C113.455 197.078 112.614 196.73 111.738 196.73H105.133V190.123C105.133 189.247 104.785 188.407 104.165 187.787C103.546 187.167 102.706 186.819 101.83 186.819C100.954 186.819 100.114 187.167 99.4944 187.787C98.8748 188.407 98.5268 189.247 98.5268 190.123V196.73ZM136.237 181.49C138.998 177.407 142.902 174.596 148.104 173.489C165.236 169.848 176.995 179.308 182.375 209.63C187.756 234.949 186.137 247.81 172.591 250.69C162.21 252.898 145.772 242.729 138.571 226.462H117.667C110.467 242.729 94.0321 252.898 83.6513 250.69C70.1056 247.81 68.4866 234.949 73.8674 209.63C79.2476 184.309 89.7408 169.581 108.139 173.489C113.671 174.668 117.701 177.463 120.482 181.49H136.237ZM144.768 203.337C145.644 203.337 146.484 202.989 147.103 202.369C147.723 201.75 148.071 200.91 148.071 200.034C148.071 199.158 147.723 198.317 147.103 197.697C146.484 197.078 145.644 196.73 144.768 196.73C143.892 196.73 143.052 197.078 142.433 197.697C141.813 198.317 141.465 199.158 141.465 200.034C141.465 200.91 141.813 201.75 142.433 202.369C143.052 202.989 143.892 203.337 144.768 203.337ZM164.586 203.337C165.461 203.337 166.301 202.989 166.921 202.369C167.541 201.75 167.889 200.91 167.889 200.034C167.889 199.158 167.541 198.317 166.921 197.697C166.301 197.078 165.461 196.73 164.586 196.73C163.71 196.73 162.87 197.078 162.25 197.697C161.63 198.317 161.282 199.158 161.282 200.034C161.282 200.91 161.63 201.75 162.25 202.369C162.87 202.989 163.71 203.337 164.586 203.337ZM154.677 193.426C155.553 193.426 156.393 193.078 157.012 192.459C157.632 191.839 157.98 190.999 157.98 190.123C157.98 189.247 157.632 188.407 157.012 187.787C156.393 187.167 155.553 186.819 154.677 186.819C153.801 186.819 152.96 187.167 152.341 187.787C151.722 188.407 151.374 189.247 151.374 190.123C151.374 190.999 151.722 191.839 152.341 192.459C152.96 193.078 153.801 193.426 154.677 193.426ZM154.677 213.248C155.553 213.248 156.393 212.9 157.012 212.28C157.632 211.661 157.98 210.82 157.98 209.944C157.98 209.068 157.632 208.228 157.012 207.608C156.393 206.989 155.553 206.641 154.677 206.641C153.801 206.641 152.96 206.989 152.341 207.608C151.722 208.228 151.374 209.068 151.374 209.944C151.374 210.82 151.722 211.661 152.341 212.28C152.96 212.9 153.801 213.248 154.677 213.248Z" fill="#52616B"/>
<path d="M185.602 31.9646C187.931 34.0551 189.836 37.3804 191.444 41.9415L192.088 43.8813C193.541 48.5404 194.757 54.3701 195.806 61.4277C201.342 69.0114 204.838 74.6553 207.111 80.3674L207.889 82.4647C209.343 86.6745 210.189 91.0274 210.778 96.3025L211.056 99.0246L211.12 99.7471V99.7518L211.232 101.701C211.488 110.711 208.017 118.565 202.797 125.08L201.653 126.46C195.674 133.384 187.73 138.701 180.352 142.247C190.137 152.481 195.01 167.301 196.602 175.15L197.181 177.997L194.278 177.993L174.199 177.951L173.259 177.946L172.579 177.307C166.484 171.575 158.602 169.034 148.444 170.641L148.44 170.636L147.931 170.724L147.926 170.719C142.103 171.718 137.847 174.008 134.857 177.238L134.153 177.997H119.343L118.639 177.238C115.696 174.059 111.532 171.793 105.852 170.77L105.57 170.719L105.056 170.636C94.8978 169.029 87.0158 171.575 80.9216 177.307L80.2408 177.946L79.3012 177.951L59.2223 177.993L56.3195 177.997L56.8936 175.15C58.4856 167.302 63.3605 152.481 73.1435 142.247C66.2481 138.932 58.8582 134.071 53.0418 127.793L51.8476 126.46C45.7044 119.346 41.5982 110.518 42.3427 100.238V100.219L42.3798 99.7703V99.7518L42.6529 96.9045C43.3393 90.4666 44.3838 85.4063 46.389 80.3674L47.3057 78.2099C49.5734 73.2018 52.8521 68.051 57.6948 61.4182C58.8942 53.3495 60.3084 46.8847 62.0511 41.9415L62.6716 40.2887C64.146 36.5678 65.8603 33.7939 67.8983 31.9646L68.755 31.1915L69.8937 31.3952L73.1022 32.0294C80.2854 33.6052 85.3855 35.8213 88.8102 37.7701L90.213 38.6081C91.5077 39.4225 92.4885 40.1586 93.1902 40.7378L94.2037 41.6452C98.111 39.9945 104.685 38.7375 110.954 37.8952L115.787 37.3165C120.478 36.816 124.593 36.5572 126.75 36.5572C129.626 36.5572 135.985 37.0137 142.546 37.8952L145.005 38.247C150.482 39.0706 155.893 40.2102 159.292 41.6452C159.52 41.4241 159.856 41.1133 160.311 40.7378L161.106 40.1081C161.998 39.4331 163.182 38.6286 164.69 37.7701L166.259 36.9183C170.171 34.9112 175.818 32.7692 183.607 31.3952L184.741 31.1915L185.602 31.9646Z" fill="white" stroke="black"/>
<path d="M139.583 224.52C140.176 225.916 140.827 227.271 141.528 228.585C137.264 229.188 132.916 229.5 128.5 229.5C123.842 229.5 119.259 229.153 114.772 228.483C115.453 227.201 116.086 225.88 116.664 224.52H139.583ZM199.61 46.5967C217.173 66.0044 228 92.572 228 121.875C228 157.112 212.343 188.394 188.144 208.026C187.973 207.139 187.794 206.236 187.606 205.32C186.942 201.423 186.188 197.828 185.347 194.522C191.372 189.454 196.757 183.65 201.365 177.249L202.039 177.25C202.001 177.004 201.959 176.748 201.912 176.482C212.798 161.04 219.191 142.204 219.191 121.875C219.191 114.911 218.441 108.122 217.017 101.585C217.282 99.3384 217.327 97.0155 217.119 94.6185C215.671 77.9582 212.746 70.2763 200.833 53.9605C200.447 51.3455 200.04 48.8927 199.61 46.5967ZM56.1304 48.0133C55.7952 49.8944 55.4742 51.876 55.1666 53.9605C50.8359 59.8921 47.6933 64.6831 45.3772 69.1788C35.2925 84.2529 29.4115 102.377 29.4115 121.875C29.4115 154.049 45.4245 182.482 69.915 199.642C69.4651 201.478 69.0413 203.371 68.6435 205.32C68.4933 206.055 68.3487 206.781 68.2088 207.497C44.378 187.835 29 156.798 29 121.875C29 93.2788 39.311 67.2877 56.1304 48.0133ZM128.5 14.25C145.074 14.25 160.702 18.6336 174.446 26.387C166.138 29.7767 162.881 33.4692 162.872 33.4792C159.21 31.7978 152.77 30.4805 146.308 29.5497C139.245 27.8728 131.877 26.985 124.301 26.985C113.024 26.985 102.205 28.9527 92.1709 32.5632C90.7259 31.2987 87.5624 28.9155 82.1314 26.6265C95.9777 18.7237 111.756 14.25 128.5 14.25Z" fill="#52616B"/>
<path d="M125.946 45.0135C125.946 45.0135 104.623 45.0135 95.9663 52.2904C88.5916 72.301 102.7 82.7966 125.946 80.4177V45.0135Z" fill="#BC6E21"/>
<path d="M130.054 45C130.054 45 151.377 45 160.034 52.2766C167.408 72.2878 153.3 82.7828 130.054 80.4044V45Z" fill="#919191"/>
<path d="M75.1099 97.3473C75.2024 96.4366 75.8812 95.699 76.7872 95.5658C80.1517 95.0703 88.631 94.07 97.5 94.9665C105.126 95.7374 112.487 97.8551 116.549 99.1815C118.209 99.7239 118.818 101.695 117.815 103.124C117.019 104.257 115.491 104.613 114.237 104.028C111.035 102.535 104.612 99.9571 97.0723 99.1948C89.445 98.4239 81.5218 99.1592 77.5106 99.6603C76.1605 99.8291 74.9734 98.7013 75.1099 97.3473Z" fill="black"/>
<path d="M83.8499 110.977C83.9561 111.411 83.848 111.869 83.5333 112.185C82.6069 113.116 80.4437 115.035 77.7936 115.683C75.3498 116.281 72.676 115.754 71.2472 115.367C70.6138 115.196 70.2009 114.615 70.19 113.959C70.1677 112.672 71.6686 111.799 72.8979 112.183C74.1016 112.558 75.5636 112.785 76.9986 112.434C78.6323 112.035 80.1512 111.072 81.2795 110.19C82.1603 109.501 83.5845 109.891 83.8499 110.977Z" fill="#D76767"/>
<path d="M87.0035 114.81C87.2315 115.049 87.3557 115.368 87.3211 115.696C87.2121 116.73 86.8053 119.084 85.3229 120.501C83.9211 121.841 81.6683 122.24 80.5229 122.358C80.0754 122.404 79.6516 122.183 79.3979 121.811C78.7119 120.806 79.6625 119.299 80.8581 119.074C81.6389 118.927 82.4116 118.629 82.9971 118.069C83.7058 117.391 84.1709 116.444 84.4748 115.537C84.819 114.511 86.2559 114.028 87.0035 114.81Z" fill="#D76767"/>
<path d="M173.193 110.977C173.087 111.411 173.195 111.869 173.51 112.185C174.436 113.116 176.6 115.035 179.25 115.683C181.694 116.281 184.367 115.754 185.796 115.367C186.43 115.196 186.843 114.615 186.854 113.959C186.876 112.672 185.375 111.799 184.146 112.183C182.942 112.558 181.48 112.785 180.045 112.434C178.411 112.035 176.892 111.072 175.764 110.19C174.883 109.501 173.459 109.891 173.193 110.977Z" fill="#D76767"/>
<path d="M170.04 114.81C169.812 115.049 169.688 115.368 169.722 115.696C169.832 116.73 170.238 119.084 171.721 120.501C173.122 121.841 175.375 122.24 176.52 122.358C176.968 122.404 177.392 122.183 177.645 121.811C178.331 120.806 177.381 119.299 176.185 119.074C175.405 118.927 174.632 118.629 174.046 118.069C173.338 117.391 172.872 116.444 172.569 115.537C172.225 114.511 170.788 114.028 170.04 114.81Z" fill="#D76767"/>
<path d="M72.5172 92.4093C72.3556 92.8403 71.9535 93.1342 71.4942 93.11C70.6114 93.064 69.1029 92.8739 67.7736 92.16C66.5154 91.4844 65.5023 90.3851 64.9135 89.6474C64.5566 89.1989 64.5812 88.575 64.9268 88.1176C65.6147 87.2078 67.1782 87.4652 67.9045 88.3442C68.2591 88.7732 68.6957 89.1719 69.2257 89.4563C70.3166 90.0423 71.3401 90.623 72.0204 91.0156C72.5058 91.2953 72.7135 91.8845 72.5172 92.4093Z" fill="#D76767"/>
<path d="M71.2491 95.2751C71.2059 95.6032 70.9637 95.8696 70.6352 95.9128C69.9781 95.9995 68.819 96.0735 67.6997 95.7535C66.6572 95.4553 65.719 94.8361 65.1515 94.4038C64.805 94.1393 64.7159 93.6699 64.9045 93.276C65.252 92.5502 66.3424 92.4786 66.9706 92.9816C67.3399 93.2774 67.7831 93.5429 68.2899 93.6879C69.2409 93.9596 70.1369 94.2379 70.7077 94.419C71.0722 94.5346 71.2993 94.8954 71.2491 95.2751Z" fill="#D76767"/>
<path d="M71.0737 98.2429C71.1372 98.5211 71.0485 98.8132 70.8181 98.9819C70.4104 99.2801 69.696 99.7144 68.8948 99.8063C68.1031 99.8978 67.2806 99.6485 66.7866 99.4541C66.4998 99.3418 66.331 99.0568 66.3348 98.7487C66.3438 98.0172 67.3356 97.5948 68.0514 97.747C68.2491 97.7892 68.4549 97.8048 68.6616 97.7811C69.2546 97.7128 69.823 97.6621 70.2417 97.6285C70.6337 97.5967 70.9859 97.8593 71.0737 98.2429Z" fill="#D76767"/>
<path d="M184.283 92.2913C184.444 92.7227 184.846 93.0166 185.305 92.9925C186.188 92.946 187.696 92.7559 189.026 92.0424C190.284 91.3664 191.297 90.267 191.886 89.5294C192.243 89.0809 192.218 88.457 191.872 87.9995C191.185 87.0898 189.622 87.3477 188.895 88.2266C188.541 88.6552 188.104 89.0543 187.574 89.3383C186.483 89.9243 185.46 90.5055 184.779 90.8975C184.294 91.1777 184.086 91.767 184.283 92.2913Z" fill="#D76767"/>
<path d="M185.55 95.1571C185.594 95.4856 185.836 95.7516 186.164 95.7952C186.822 95.882 187.98 95.9559 189.1 95.6359C190.142 95.3377 191.08 94.7186 191.647 94.2862C191.995 94.0217 192.083 93.5519 191.895 93.1584C191.547 92.4326 190.457 92.3605 189.829 92.8635C189.46 93.1593 189.017 93.4248 188.509 93.5699C187.558 93.8415 186.662 94.1198 186.092 94.3009C185.727 94.4166 185.5 94.7778 185.55 95.1571Z" fill="#D76767"/>
<path d="M185.726 98.1248C185.662 98.4031 185.751 98.6951 185.981 98.8639C186.389 99.1621 187.103 99.5963 187.904 99.6888C188.697 99.7798 189.519 99.5304 190.013 99.3365C190.3 99.2237 190.468 98.9388 190.464 98.6306C190.455 97.8991 189.464 97.4772 188.748 97.6294C188.55 97.6711 188.345 97.6872 188.138 97.6631C187.545 97.5948 186.976 97.5441 186.558 97.5104C186.166 97.4786 185.814 97.7413 185.726 98.1248Z" fill="#D76767"/>
<path d="M181.738 97.3473C181.646 96.4366 180.967 95.699 180.061 95.5658C176.696 95.0703 168.217 94.07 159.348 94.9665C151.722 95.7374 144.361 97.8551 140.299 99.1815C138.639 99.7239 138.03 101.695 139.033 103.124C139.829 104.257 141.357 104.613 142.611 104.028C145.813 102.535 152.236 99.9571 159.775 99.1948C167.403 98.4239 175.326 99.1592 179.337 99.6603C180.688 99.8291 181.875 98.7013 181.738 97.3473Z" fill="black"/>
<path d="M140.939 119.001C141.869 117.963 143.879 118.273 144.208 119.616C144.315 120.053 144.218 120.511 143.92 120.852C142.713 122.231 139.285 125.75 135.701 125.75C132.45 125.75 129.328 122.857 127.875 121.289C126.421 122.857 123.3 125.75 120.05 125.75C116.465 125.75 113.037 122.232 111.83 120.852C111.532 120.511 111.435 120.053 111.542 119.616C111.871 118.273 113.88 117.963 114.811 119.001C116.163 120.508 118.004 121.972 120.05 121.972C122.314 121.972 124.649 120.402 126.326 118.948C126.762 118.568 127.234 118.25 127.875 118.25C128.516 118.25 128.987 118.568 129.425 118.948C131.101 120.402 133.436 121.972 135.701 121.972C137.746 121.972 139.586 120.508 140.939 119.001Z" fill="black"/>
<path d="M126.639 115.079L124.341 112.78C124.048 112.487 123.573 112.487 123.281 112.78C122.988 113.073 122.988 113.548 123.281 113.841L125.578 116.139C125.871 116.432 126.346 116.432 126.639 116.139C126.932 115.846 126.932 115.371 126.639 115.079Z" fill="black"/>
<path d="M130.591 116.139L132.889 113.841C133.182 113.548 133.182 113.073 132.889 112.78C132.596 112.487 132.122 112.487 131.829 112.78L129.53 115.079C129.237 115.372 129.237 115.846 129.53 116.139C129.823 116.432 130.298 116.432 130.591 116.139Z" fill="black"/>
</g>
</g>
<defs>
<clipPath id="clip0_149_7">
<rect width="256" height="256" fill="white"/>
</clipPath>
</defs>
</svg>
